<svg xmlns="http://www.w3.org/2000/svg" width="20" height="24" fill-rule="evenodd" clip-rule="evenodd" style=""><rect id="backgroundrect" width="100%" height="100%" x="0" y="0" fill="none" stroke="none" class="" style=""/><g class="currentLayer" style=""><title>Layer 1</title><path d="M20,0 h-20 v24 h14 l6,-6 v-18 zm-7,23 h-12 v-22 h18 v16 h-6 v6 zm1,-5 h4.586 l-4.586,4.586 v-4.586 zm-3,1 h-8 v1 h8 v-1 zm0,-3 h-8 v1 h8 v-1 zm6,-2 v-1 h-14 v1 h14 zm0,-4 h-4 v1 h4 v-1 zm-6.006,1 h-7.991 l-0.003000000000000002,-0.789 c-0.003000000000000002,-0.7200000000000002 -0.006000000000000004,-1.6150000000000002 1.314,-1.92 c1.483,-0.3410000000000002 1.236,-0.4180000000000001 1.158,-0.5630000000000002 c-1.078,-1.988 -0.7100000000000002,-3.173 -0.3950000000000002,-3.7030000000000003 c0.3880000000000001,-0.6510000000000002 1.089,-1.025 1.923,-1.025 c0.8270000000000002,0 1.5230000000000001,0.3680000000000001 1.9100000000000001,1.011 c0.545,0.904 0.4090000000000001,2.222 -0.3790000000000001,3.713 c-0.10500000000000002,0.19600000000000006 -0.19500000000000006,0.255 1.119,0.559 c1.355,0.3120000000000001 1.352,1.212 1.35,1.936 l-0.006000000000000004,0.781 zm-6.994,-1 h6 c-0.007000000000000004,-0.547 -0.07,-0.6260000000000002 -0.54,-0.7340000000000002 c-0.8550000000000002,-0.19800000000000006 -1.629,-0.3760000000000001 -1.901,-0.972 c-0.14200000000000004,-0.3110000000000001 -0.11300000000000003,-0.6600000000000003 0.08700000000000004,-1.039 c0.6100000000000002,-1.151 0.7580000000000002,-2.146 0.4070000000000001,-2.729 c-0.276,-0.458 -0.778,-0.526 -1.053,-0.526 c-0.4800000000000001,0 -0.8570000000000002,0.19000000000000006 -1.063,0.537 c-0.3520000000000001,0.5900000000000002 -0.201,1.58 0.4140000000000001,2.714 c0.20400000000000001,0.3770000000000001 0.23600000000000004,0.7270000000000002 0.09500000000000006,1.039 c-0.269,0.5980000000000002 -1.036,0.774 -1.847,0.9620000000000002 c-0.525,0.12100000000000002 -0.5930000000000002,0.202 -0.5990000000000002,0.7480000000000002 zm13,-2 v-1 h-4 v1 h4 zm0,-4 h-4 v1 h4 v-1 z" id="svg_1" class="" fill="#ffffff" fill-opacity="1"/></g></svg>