<?xml version="1.0" encoding="UTF-8" standalone="no" ?>
<!DOCTYPE svg PUBLIC "-//W3C//DTD SVG 1.1//EN" "http://www.w3.org/Graphics/SVG/1.1/DTD/svg11.dtd">
<svg xmlns="http://www.w3.org/2000/svg" xmlns:xlink="http://www.w3.org/1999/xlink" version="1.1" width="1080" height="1080" viewBox="0 0 1080 1080" xml:space="preserve">
<desc>Created with Fabric.js 4.2.0</desc>
<defs>
</defs>
<g transform="matrix(1 0 0 1 540 540)" id="c58926c1-f03a-4b14-b802-26d82ae7aec6"  >
<rect style="stroke: none; stroke-width: 1; stroke-dasharray: none; stroke-linecap: butt; stroke-dashoffset: 0; stroke-linejoin: miter; stroke-miterlimit: 4; fill: rgb(255,255,255); fill-rule: nonzero; opacity: 1; visibility: hidden;" vector-effect="non-scaling-stroke"  x="-540" y="-540" rx="0" ry="0" width="1080" height="1080" />
</g>
<g transform="matrix(1 0 0 1 540 540)" id="ff5394b4-19fd-4ef1-90e0-91b06c73e896"  >
</g>
<g transform="matrix(9.25 0 0 9.25 540 540)"  >
<g style="" vector-effect="non-scaling-stroke"   >
		<g transform="matrix(1 0 0 1 0 7)"  >
<path style="stroke: none; stroke-width: 1; stroke-dasharray: none; stroke-linecap: butt; stroke-dashoffset: 0; stroke-linejoin: miter; stroke-miterlimit: 4; fill: rgb(255,254,254); fill-rule: nonzero; opacity: 1;" vector-effect="non-scaling-stroke"  transform=" translate(-24.85, -32)" d="M 37.7 21 L 36 21.2 L 36 18 C 36 16.895430500338414 35.10456949966159 16 34 16 L 4 16 C 2.895430500338413 16 2 16.895430500338414 2 18 L 2 36.8 C 2 42.98558919810488 7.014410801895113 48 13.2 48 L 24.8 48 C 29.481736564562404 48.00039811862068 33.66975245730143 45.088729926525936 35.3 40.7 L 37.7 41 C 43.222847498307935 41 47.7 36.52284749830793 47.7 31 C 47.7 25.477152501692068 43.222847498307935 21 37.7 21 Z M 32 36.8 C 32 38.70955872684471 31.241430749368995 40.54090689971729 29.891168824543144 41.89116882454314 C 28.540906899717292 43.24143074936899 26.70955872684472 44 24.8 44 L 13.2 44 C 9.223549801218287 44 6 40.77645019878171 6 36.8 L 6 20 L 32 20 L 32 36.8 Z M 37.7 37 L 36 36.8 L 36 25.2 L 37.7 25 C 41.01370849898476 25 43.7 27.686291501015237 43.7 31 C 43.7 34.31370849898476 41.01370849898476 37 37.7 37 Z" stroke-linecap="round" />
</g>
		<g transform="matrix(1 0 0 1 -14.85 -17)"  >
<path style="stroke: none; stroke-width: 1; stroke-dasharray: none; stroke-linecap: butt; stroke-dashoffset: 0; stroke-linejoin: miter; stroke-miterlimit: 4; fill: rgb(255,254,254); fill-rule: nonzero; opacity: 1;" vector-effect="non-scaling-stroke"  transform=" translate(-10, -8)" d="M 10 14 C 11.104569499661586 14 12 13.104569499661586 12 12 L 12 4 C 12 2.895430500338413 11.104569499661586 2 10 2 C 8.895430500338414 2 8 2.8954305003384126 8 3.9999999999999996 L 8 12 C 8 13.104569499661586 8.895430500338414 14 10 14 Z" stroke-linecap="round" />
</g>
		<g transform="matrix(1 0 0 1 -5.85 -17)"  >
<path style="stroke: none; stroke-width: 1; stroke-dasharray: none; stroke-linecap: butt; stroke-dashoffset: 0; stroke-linejoin: miter; stroke-miterlimit: 4; fill: rgb(255,254,254); fill-rule: nonzero; opacity: 1;" vector-effect="non-scaling-stroke"  transform=" translate(-19, -8)" d="M 19 14 C 20.104569499661586 14 21 13.104569499661586 21 12 L 21 4 C 21 2.895430500338413 20.104569499661586 2 19 2 C 17.895430500338414 2 17 2.8954305003384126 17 3.9999999999999996 L 17 12 C 17 13.104569499661586 17.895430500338414 14 19 14 Z" stroke-linecap="round" />
</g>
		<g transform="matrix(1 0 0 1 3.15 -17)"  >
<path style="stroke: none; stroke-width: 1; stroke-dasharray: none; stroke-linecap: butt; stroke-dashoffset: 0; stroke-linejoin: miter; stroke-miterlimit: 4; fill: rgb(255,254,254); fill-rule: nonzero; opacity: 1;" vector-effect="non-scaling-stroke"  transform=" translate(-28, -8)" d="M 28 14 C 29.104569499661586 14 30 13.104569499661586 30 12 L 30 4 C 30 2.895430500338413 29.104569499661586 2 28 2 C 26.895430500338414 2 26 2.8954305003384126 26 3.9999999999999996 L 26 12 C 26 13.104569499661586 26.895430500338414 14 28 14 Z" stroke-linecap="round" />
</g>
</g>
</g>
</svg>