<?xml version="1.0" encoding="UTF-8" standalone="no" ?>
<!DOCTYPE svg PUBLIC "-//W3C//DTD SVG 1.1//EN" "http://www.w3.org/Graphics/SVG/1.1/DTD/svg11.dtd">
<svg xmlns="http://www.w3.org/2000/svg" xmlns:xlink="http://www.w3.org/1999/xlink" version="1.1" width="431" height="531" viewBox="0 0 431 531" xml:space="preserve">
<desc>Created with Fabric.js 3.6.3</desc>
<defs>
</defs>
<rect x="0" y="0" width="100%" height="100%" fill="rgba(254, 253, 253, 0)"></rect>
<g transform="matrix(1 0 0 1 216 266)"  >
<g style=""   >
		<g transform="matrix(1 0 0 1 -490 -490)"  >
<rect style="stroke: none; stroke-width: 1; stroke-dasharray: none; stroke-linecap: butt; stroke-dashoffset: 0; stroke-linejoin: miter; stroke-miterlimit: 4; fill: rgb(255,255,255); fill-opacity: 0; fill-rule: nonzero; opacity: 1;"  x="-50" y="-50" rx="0" ry="0" width="100" height="100" />
</g>
		<g transform="matrix(1 0 0 1 0 0)" id="c70676cf-9516-4f7e-938f-b1a20cfd27ba"  >
<rect style="stroke: none; stroke-width: 1; stroke-dasharray: none; stroke-linecap: butt; stroke-dashoffset: 0; stroke-linejoin: miter; stroke-miterlimit: 4; fill: rgb(255,255,255); fill-rule: nonzero; opacity: 1; visibility: hidden;" vector-effect="non-scaling-stroke"  x="-540" y="-540" rx="0" ry="0" width="1080" height="1080" />
</g>
		<g transform="matrix(1.15 0 0 1.15 16.72 -212.61)"  >
<path style="stroke: none; stroke-width: 1; stroke-dasharray: none; stroke-linecap: butt; stroke-dashoffset: 0; stroke-linejoin: miter; stroke-miterlimit: 4; fill: rgb(255,255,255); fill-rule: nonzero; opacity: 1;" vector-effect="non-scaling-stroke"  transform=" translate(-245.25, -45.83)" d="M 232.752 84.165 C 232.752 88.307 236.109 91.665 240.252 91.665 C 244.395 91.665 247.752 88.307 247.752 84.165 C 247.752 76.421 249.583 72.912 251.901 68.46900000000001 C 254.643 63.214000000000006 257.752 57.25600000000001 257.752 45.83500000000001 C 257.752 34.41300000000001 254.644 28.45500000000001 251.901 23.198000000000008 C 249.583 18.75500000000001 247.752 15.245000000000008 247.752 7.500000000000007 C 247.752 3.3580000000000068 244.395 7.105427357601002e-15 240.252 7.105427357601002e-15 C 236.109 7.105427357601002e-15 232.752 3.358000000000007 232.752 7.500000000000007 C 232.752 18.922000000000008 235.86 24.880000000000006 238.603 30.137000000000008 C 240.92100000000002 34.580000000000005 242.752 38.09000000000001 242.752 45.83500000000001 C 242.752 53.57900000000001 240.92100000000002 57.08800000000001 238.603 61.531000000000006 C 235.86100000000002 66.787 232.752 72.744 232.752 84.165 z" stroke-linecap="round" />
</g>
		<g transform="matrix(1.15 0 0 1.15 85.72 -212.61)"  >
<path style="stroke: none; stroke-width: 1; stroke-dasharray: none; stroke-linecap: butt; stroke-dashoffset: 0; stroke-linejoin: miter; stroke-miterlimit: 4; fill: rgb(255,255,255); fill-rule: nonzero; opacity: 1;" vector-effect="non-scaling-stroke"  transform=" translate(-305.25, -45.83)" d="M 292.752 84.165 C 292.752 88.307 296.10900000000004 91.665 300.252 91.665 C 304.395 91.665 307.752 88.307 307.752 84.165 C 307.752 76.421 309.583 72.912 311.901 68.46900000000001 C 314.64300000000003 63.214000000000006 317.752 57.25600000000001 317.752 45.83500000000001 C 317.752 34.41300000000001 314.644 28.45500000000001 311.901 23.198000000000008 C 309.583 18.75500000000001 307.752 15.245000000000008 307.752 7.500000000000007 C 307.752 3.3580000000000068 304.395 7.105427357601002e-15 300.252 7.105427357601002e-15 C 296.10900000000004 7.105427357601002e-15 292.752 3.358000000000007 292.752 7.500000000000007 C 292.752 18.922000000000008 295.86 24.880000000000006 298.603 30.137000000000008 C 300.921 34.580000000000005 302.752 38.09000000000001 302.752 45.83500000000001 C 302.752 53.57900000000001 300.921 57.08800000000001 298.603 61.531000000000006 C 295.861 66.787 292.752 72.744 292.752 84.165 z" stroke-linecap="round" />
</g>
		<g transform="matrix(1.15 0 0 1.15 -0.01 61.33)"  >
<path style="stroke: none; stroke-width: 1; stroke-dasharray: none; stroke-linecap: butt; stroke-dashoffset: 0; stroke-linejoin: miter; stroke-miterlimit: 4; fill: rgb(255,255,255); fill-rule: nonzero; opacity: 1;" vector-effect="non-scaling-stroke"  transform=" translate(-230.72, -284.05)" d="M 417.723 114.825 C 417.731 114.733 417.728 114.642 417.733 114.55 C 417.74 114.422 417.753 114.295 417.753 114.166 C 417.753 114.14399999999999 417.75 114.12299999999999 417.75 114.102 C 417.749 113.986 417.739 113.87 417.732 113.75500000000001 C 417.72400000000005 113.611 417.718 113.46600000000001 417.70200000000006 113.32400000000001 C 417.69100000000003 113.22700000000002 417.67300000000006 113.13200000000002 417.6580000000001 113.03600000000002 C 417.63400000000007 112.87600000000002 417.6090000000001 112.71600000000002 417.57500000000005 112.56000000000002 C 417.5570000000001 112.47900000000001 417.5330000000001 112.40000000000002 417.51300000000003 112.32000000000002 C 417.47 112.15200000000002 417.42600000000004 111.98500000000003 417.372 111.82200000000002 C 417.34700000000004 111.74700000000001 417.31800000000004 111.67400000000002 417.29 111.59900000000002 C 417.23 111.43600000000002 417.16900000000004 111.27500000000002 417.09900000000005 111.11700000000002 C 417.06500000000005 111.04000000000002 417.02600000000007 110.96500000000002 416.98900000000003 110.88900000000002 C 416.91700000000003 110.74100000000003 416.84200000000004 110.59400000000002 416.76000000000005 110.45100000000002 C 416.713 110.36900000000003 416.66300000000007 110.28900000000002 416.61300000000006 110.20900000000002 C 416.53100000000006 110.07800000000002 416.44700000000006 109.94900000000001 416.3570000000001 109.82300000000002 C 416.29800000000006 109.74000000000002 416.2360000000001 109.65900000000002 416.1740000000001 109.57800000000002 C 416.0830000000001 109.46000000000002 415.9880000000001 109.34500000000001 415.8900000000001 109.23300000000002 C 415.8530000000001 109.19000000000001 415.8200000000001 109.14400000000002 415.7820000000001 109.10200000000002 C 415.7490000000001 109.06500000000001 415.71100000000007 109.03400000000002 415.6770000000001 108.99800000000002 C 415.5760000000001 108.89200000000002 415.47100000000006 108.79000000000002 415.3640000000001 108.69000000000001 C 415.2870000000001 108.61800000000001 415.2090000000001 108.54500000000002 415.1290000000001 108.47600000000001 C 415.0150000000001 108.37900000000002 414.8980000000001 108.28700000000002 414.7780000000001 108.19600000000001 C 414.69900000000007 108.13600000000001 414.6210000000001 108.07500000000002 414.5400000000001 108.01800000000001 C 414.40600000000006 107.92400000000002 414.26700000000005 107.83800000000001 414.1260000000001 107.75300000000001 C 414.0540000000001 107.71000000000001 413.9840000000001 107.66300000000001 413.9110000000001 107.62300000000002 C 413.7480000000001 107.53200000000002 413.5800000000001 107.45000000000002 413.41000000000014 107.37100000000002 C 413.35400000000016 107.34500000000003 413.3000000000001 107.31500000000003 413.24400000000014 107.29100000000003 C 413.0480000000001 107.20500000000003 412.8460000000001 107.13100000000003 412.64200000000017 107.06200000000003 C 412.60700000000014 107.05000000000003 412.5740000000002 107.03500000000003 412.53900000000016 107.02400000000003 C 412.31400000000014 106.95200000000003 412.0840000000002 106.89200000000002 411.85100000000017 106.84100000000002 C 411.8340000000002 106.83700000000002 411.8170000000002 106.83100000000002 411.8000000000002 106.82800000000002 C 411.5620000000002 106.77800000000002 411.3190000000002 106.74000000000002 411.0730000000002 106.71300000000002 C 410.7760000000002 106.68000000000002 410.5160000000002 106.66600000000003 410.2520000000002 106.66600000000003 L 140.25200000000018 106.66600000000003 C 139.98800000000017 106.66600000000003 139.72700000000017 106.68000000000002 139.47100000000017 106.70700000000002 C 139.18500000000017 106.74000000000002 138.94300000000018 106.77800000000002 138.70500000000018 106.82800000000002 C 138.6880000000002 106.83200000000002 138.6710000000002 106.83700000000002 138.6530000000002 106.84100000000002 C 138.41900000000018 106.89200000000002 138.1900000000002 106.95200000000003 137.9650000000002 107.02400000000003 C 137.9300000000002 107.03500000000003 137.8960000000002 107.05000000000003 137.8610000000002 107.06200000000003 C 137.65700000000018 107.13100000000003 137.45500000000018 107.20500000000003 137.25900000000019 107.29100000000003 C 137.2020000000002 107.31600000000003 137.1480000000002 107.34600000000003 137.09200000000018 107.37200000000003 C 136.9220000000002 107.45100000000002 136.7540000000002 107.53300000000003 136.59100000000018 107.62400000000002 C 136.51800000000017 107.66500000000002 136.44800000000018 107.71100000000003 136.37600000000018 107.75400000000002 C 136.2360000000002 107.83900000000001 136.09600000000017 107.92500000000003 135.9620000000002 108.01900000000002 C 135.8810000000002 108.07600000000002 135.8030000000002 108.13700000000001 135.7240000000002 108.19700000000002 C 135.6050000000002 108.28800000000001 135.4870000000002 108.37900000000002 135.3730000000002 108.47700000000002 C 135.29300000000018 108.54600000000002 135.21600000000018 108.61800000000002 135.13800000000018 108.69100000000002 C 135.03100000000018 108.79100000000001 134.9260000000002 108.89300000000001 134.8250000000002 108.99900000000002 C 134.7910000000002 109.03500000000003 134.75300000000018 109.06600000000002 134.7200000000002 109.10300000000002 C 134.6810000000002 109.14500000000002 134.6490000000002 109.19200000000002 134.6120000000002 109.23400000000002 C 134.51400000000018 109.34600000000002 134.41900000000018 109.46100000000003 134.3280000000002 109.57900000000002 C 134.2650000000002 109.66000000000003 134.2040000000002 109.74100000000003 134.1450000000002 109.82400000000003 C 134.0550000000002 109.95000000000003 133.9710000000002 110.07900000000002 133.8900000000002 110.21000000000002 C 133.8400000000002 110.29000000000002 133.79000000000022 110.37000000000002 133.74300000000022 110.45200000000003 C 133.66200000000023 110.59500000000003 133.58700000000022 110.74100000000003 133.5150000000002 110.88900000000002 C 133.4780000000002 110.96500000000002 133.43900000000022 111.04100000000003 133.4050000000002 111.11800000000002 C 133.3350000000002 111.27500000000002 133.2740000000002 111.43600000000002 133.2140000000002 111.59800000000003 C 133.1870000000002 111.67300000000003 133.1570000000002 111.74600000000002 133.1320000000002 111.82200000000003 C 133.0780000000002 111.98500000000003 133.0340000000002 112.15200000000003 132.9910000000002 112.32000000000004 C 132.9710000000002 112.40000000000003 132.9470000000002 112.47900000000004 132.9290000000002 112.56000000000003 C 132.8950000000002 112.71700000000003 132.8710000000002 112.87600000000003 132.8460000000002 113.03600000000003 C 132.83100000000022 113.13200000000003 132.81300000000022 113.22700000000003 132.8020000000002 113.32400000000003 C 132.7860000000002 113.46600000000002 132.7800000000002 113.61100000000003 132.7720000000002 113.75500000000002 C 132.7660000000002 113.87100000000002 132.7550000000002 113.98600000000002 132.7540000000002 114.10200000000002 C 132.7540000000002 114.12400000000002 132.7510000000002 114.14500000000002 132.7510000000002 114.16600000000001 C 132.7510000000002 114.296 132.7640000000002 114.42200000000001 132.7700000000002 114.55000000000001 C 132.7750000000002 114.64200000000001 132.77200000000022 114.73300000000002 132.7800000000002 114.82500000000002 L 132.7890000000002 114.93000000000002 C 132.7890000000002 114.93300000000002 135.60400000000018 146.806 135.60400000000018 146.806 C 110.00500000000018 148.36700000000002 86.62300000000019 162.81300000000002 69.34700000000018 187.88400000000001 C 52.79400000000018 211.906 43.67800000000018 243.435 43.67800000000018 276.665 C 43.67800000000018 309.894 52.793000000000184 341.423 69.34500000000018 365.446 C 87.66000000000018 392.02700000000004 112.84200000000018 406.665 140.25000000000017 406.665 L 158.92900000000017 406.665 C 165.08300000000017 437.427 193.47000000000017 461.432 225.25000000000017 461.432 L 325.25000000000017 461.432 C 359.36300000000017 461.432 389.55800000000016 433.786 392.5590000000002 399.805 L 417.7120000000002 114.93299999999999 C 417.7140000000002 114.92999999999999 417.72300000000024 114.82499999999999 417.72300000000024 114.82499999999999 z M 377.619 398.486 C 375.28400000000005 424.924 351.79200000000003 446.432 325.252 446.432 L 225.252 446.432 C 198.722 446.432 175.231 424.93100000000004 172.888 398.502 C 172.54500000000002 394.632 169.303 391.665 165.417 391.665 L 140.252 391.665 C 117.92600000000002 391.665 97.131 379.331 81.69800000000001 356.935 C 66.85400000000001 335.391 58.67900000000001 306.884 58.67900000000001 276.665 C 58.67900000000001 246.44600000000003 66.855 217.93800000000002 81.70000000000002 196.39500000000004 C 97.13300000000001 173.99900000000002 117.92800000000003 161.66500000000005 140.25400000000002 161.66500000000005 L 143.78400000000002 161.66500000000005 C 145.88800000000003 161.66500000000005 147.895 160.78100000000006 149.31500000000003 159.22900000000004 C 150.73600000000002 157.67800000000005 151.44000000000003 155.60100000000006 151.25400000000002 153.50500000000005 L 148.442 121.66500000000005 L 402.05899999999997 121.66500000000005 L 377.61899999999997 398.4860000000001 z" stroke-linecap="round" />
</g>
		<g transform="matrix(1.15 0 0 1.15 -125.05 52.85)"  >
<path style="stroke: none; stroke-width: 1; stroke-dasharray: none; stroke-linecap: butt; stroke-dashoffset: 0; stroke-linejoin: miter; stroke-miterlimit: 4; fill: rgb(255,255,255); fill-rule: nonzero; opacity: 1;" vector-effect="non-scaling-stroke"  transform=" translate(-121.97, -276.66)" d="M 140.254 176.665 C 123.00899999999999 176.665 106.601 186.695 94.05199999999999 204.90699999999998 C 80.91499999999999 223.97099999999998 73.67999999999999 249.456 73.67999999999999 276.66499999999996 C 73.67999999999999 303.876 80.91399999999999 329.35999999999996 94.05099999999999 348.424 C 106.59899999999999 366.635 123.00699999999999 376.66499999999996 140.25199999999998 376.66499999999996 L 162.76799999999997 376.66499999999996 C 164.87199999999999 376.66499999999996 166.87899999999996 375.78099999999995 168.29899999999998 374.229 C 169.71999999999997 372.678 170.42399999999998 370.601 170.23799999999997 368.505 L 153.90299999999996 183.505 C 153.56099999999995 179.63299999999998 150.31899999999996 176.665 146.43199999999996 176.665 L 140.25399999999996 176.665 z M 154.576 361.66499999999996 L 140.25199999999998 361.66499999999996 C 128.08899999999997 361.66499999999996 116.06699999999998 353.93999999999994 106.40199999999999 339.91299999999995 C 94.97299999999998 323.328 88.67899999999999 300.866 88.67899999999999 276.66499999999996 C 88.67899999999999 252.46599999999995 94.97299999999998 230.00399999999996 106.40299999999999 213.41699999999997 C 115.886 199.65399999999997 127.63799999999999 191.95799999999997 139.56599999999997 191.67299999999997 L 154.57599999999996 361.66499999999996 z" stroke-linecap="round" />
</g>
		<g transform="matrix(1.15 0 0 1.15 51.23 101.58)"  >
<path style="stroke: none; stroke-width: 1; stroke-dasharray: none; stroke-linecap: butt; stroke-dashoffset: 0; stroke-linejoin: miter; stroke-miterlimit: 4; fill: rgb(255,255,255); fill-rule: nonzero; opacity: 1;" vector-effect="non-scaling-stroke"  transform=" translate(-275.25, -319.05)" d="M 187.827 397.167 C 189.46699999999998 415.741 206.605 431.433 225.252 431.433 L 325.252 431.433 C 343.898 431.433 361.03700000000003 415.741 362.677 397.167 L 369.40700000000004 320.938 C 369.771 316.812 366.72200000000004 313.17199999999997 362.595 312.807 C 358.49600000000004 312.449 354.829 315.492 354.46500000000003 319.619 L 347.735 395.848 C 346.784 406.622 336.067 416.433 325.252 416.433 L 225.252 416.433 C 214.437 416.433 203.72 406.621 202.769 395.848 L 187.436 222.18900000000002 C 192.78300000000002 222.94600000000003 196.369 224.43900000000002 200.33100000000002 226.08900000000003 C 206.60700000000003 228.70300000000003 213.723 231.66500000000002 227.229 231.66500000000002 C 240.735 231.66500000000002 247.85000000000002 228.70300000000003 254.126 226.08900000000003 C 259.826 223.71500000000003 264.75 221.66500000000002 275.258 221.66500000000002 C 285.765 221.66500000000002 290.68699999999995 223.71500000000003 296.38599999999997 226.08800000000002 C 302.662 228.70200000000003 309.777 231.66500000000002 323.282 231.66500000000002 C 336.787 231.66500000000002 343.90099999999995 228.70300000000003 350.178 226.08900000000003 C 354.139 224.43900000000002 357.724 222.94600000000003 363.07 222.18900000000002 L 357.106 289.73400000000004 C 356.742 293.86 359.791 297.50000000000006 363.918 297.86400000000003 C 368.009 298.22700000000003 371.684 295.17900000000003 372.048 291.05300000000005 L 378.778 214.82400000000007 C 378.964 212.72800000000007 378.259 210.65100000000007 376.839 209.09900000000007 C 375.419 207.5480000000001 373.411 206.66400000000007 371.308 206.66400000000007 C 357.802 206.66400000000007 350.688 209.62600000000006 344.412 212.24100000000007 C 338.71299999999997 214.61500000000007 333.791 216.66400000000007 323.284 216.66400000000007 C 312.777 216.66400000000007 307.855 214.61400000000006 302.156 212.24100000000007 C 295.88 209.62700000000007 288.765 206.66400000000007 275.26 206.66400000000007 C 261.753 206.66400000000007 254.63899999999998 209.62600000000006 248.363 212.24000000000007 C 242.663 214.61400000000006 237.739 216.66400000000007 227.231 216.66400000000007 C 216.72199999999998 216.66400000000007 211.799 214.61400000000006 206.09799999999998 212.24000000000007 C 199.82199999999997 209.62600000000006 192.706 206.66400000000007 179.201 206.66400000000007 C 177.09699999999998 206.66400000000007 175.09 207.54800000000006 173.67 209.09900000000007 C 172.249 210.65100000000007 171.545 212.72800000000007 171.731 214.82400000000007 L 187.827 397.16700000000003 z" stroke-linecap="round" />
</g>
</g>
</g>
</svg>