<?xml version="1.0" encoding="UTF-8" standalone="no" ?>
<!DOCTYPE svg PUBLIC "-//W3C//DTD SVG 1.1//EN" "http://www.w3.org/Graphics/SVG/1.1/DTD/svg11.dtd">
<svg xmlns="http://www.w3.org/2000/svg" xmlns:xlink="http://www.w3.org/1999/xlink" version="1.1" width="434" height="694" viewBox="0 0 434 694" xml:space="preserve">
<desc>Created with Fabric.js 3.6.3</desc>
<defs>
</defs>
<g transform="matrix(1 0 0 1 216.5 346.5)" id="f3a4ce00-0980-40b7-a7e3-3c257241bbf8"  >
<rect style="stroke: none; stroke-width: 1; stroke-dasharray: none; stroke-linecap: butt; stroke-dashoffset: 0; stroke-linejoin: miter; stroke-miterlimit: 4; fill: rgb(255,255,255); fill-opacity: 0; fill-rule: nonzero; opacity: 1; visibility: hidden;" vector-effect="non-scaling-stroke"  x="-540" y="-540" rx="0" ry="0" width="1080" height="1080" />
</g>
<g transform="matrix(1.3 0 0 1.3 217.17 347.57)"  >
<path style="stroke: rgb(0,0,0); stroke-width: 0; stroke-dasharray: none; stroke-linecap: butt; stroke-dashoffset: 0; stroke-linejoin: miter; stroke-miterlimit: 4; fill: rgb(255,255,255); fill-rule: nonzero; opacity: 1;" vector-effect="non-scaling-stroke"  transform=" translate(-266.67, -266.67)" d="M 266.666 0 C 174.618 0 100 74.619 100 166.667 C 100 333.334 266.66700000000003 533.334 266.66700000000003 533.334 C 266.66700000000003 533.334 433.33400000000006 333.33399999999995 433.33400000000006 166.66699999999997 C 433.333 74.619 358.713 0 266.666 0 z M 266.666 266.667 C 211.437 266.667 166.666 221.89599999999996 166.666 166.66699999999997 C 166.666 111.43799999999997 211.437 66.66699999999997 266.666 66.66699999999997 C 321.895 66.66699999999997 366.666 111.43799999999997 366.666 166.66699999999997 C 366.666 221.896 321.895 266.667 266.666 266.667 z" stroke-linecap="round" />
</g>
</svg>